<?xml version="1.0" encoding="UTF-8"?>
<!DOCTYPE svg PUBLIC "-//W3C//DTD SVG 1.1//EN" "http://www.w3.org/Graphics/SVG/1.1/DTD/svg11.dtd">
<!-- Creator: CorelDRAW -->
<svg xmlns="http://www.w3.org/2000/svg" xml:space="preserve" width="2048px" height="2048px" style="shape-rendering:geometricPrecision; text-rendering:geometricPrecision; image-rendering:optimizeQuality; fill-rule:evenodd; clip-rule:evenodd"
viewBox="0 0 2048 2048"
 xmlns:xlink="http://www.w3.org/1999/xlink">
 <defs>
  <style type="text/css">
   <![CDATA[
    .fil0 {fill:none}
    .fil3 {fill:#888888}
    .fil2 {fill:#929292}
    .fil1 {fill:#616161;fill-rule:nonzero}
    .fil4 {fill:#BEBEBE;fill-rule:nonzero}
   ]]>
  </style>
 </defs>
 <g id="Layer_x0020_1">
  <metadata id="CorelCorpID_0Corel-Layer"/>
  <rect class="fil0" width="2048" height="2048"/>
  <rect class="fil0" width="2048" height="2048"/>
  <rect class="fil0" x="255.999" y="255.999" width="1536" height="1536"/>
  <path class="fil1" d="M647.084 1417.73c31.3654,0 59.7756,12.7193 80.3304,33.2811 20.5618,20.5559 33.2823,48.965 33.2823,80.3316 0,31.3725 -12.7205,59.7756 -33.2823,80.3375 -20.5547,20.5547 -48.965,33.2752 -80.3304,33.2752 -31.3725,0 -59.7756,-12.7205 -80.3304,-33.2752 -20.5618,-20.5618 -33.2823,-48.965 -33.2823,-80.3375 0,-31.3666 12.7205,-59.7756 33.2823,-80.3316 20.5547,-20.5618 48.9579,-33.2811 80.3304,-33.2811z"/>
  <path class="fil1" d="M1073.81 1417.73c31.3725,0 59.7756,12.7193 80.3304,33.2811 20.5618,20.5559 33.2823,48.965 33.2823,80.3316 0,31.3725 -12.7205,59.7756 -33.2823,80.3375 -20.5547,20.5547 -48.9579,33.2752 -80.3304,33.2752 -31.3725,0 -59.7756,-12.7205 -80.3375,-33.2752 -20.5547,-20.5618 -33.2752,-48.965 -33.2752,-80.3375 0,-31.3666 12.7205,-59.7756 33.2752,-80.3316 20.5618,-20.5618 48.965,-33.2811 80.3375,-33.2811z"/>
  <path class="fil2" d="M1792 403.043l0 63.4689c-15.7654,1.20473 -33.0047,2.2252 -49.8662,3.22087 -113.329,6.71339 -207.162,12.2669 -263.301,134.982l-360.612 793.822 -523.367 -0.347244 0.0755906 -62.6812 480.447 -0.302362 56.7248 -123.957 -536.63 0 -195.571 -337.618 -0.0944883 0.056693 -35.4 -61.3323 -55.4575 -95.7355 0.126378 -0.126378 -53.0752 -91.9359 73.3973 0 2.15551 4.48229 27.8858 48.3473 1016.78 0 45.2209 -98.895c71.9717,-157.339 182.943,-163.908 316.987,-171.843 16.6347,-0.989765 33.6792,-1.99843 53.5725,-3.60591zm-875.668 484.957l0 -17.8925c0,-8.01379 -3.16418,-15.5988 -8.82757,-21.261 -5.21339,-5.21339 -12.0496,-8.37166 -19.3654,-8.84646l-1.96181 0c-8.03741,0 -15.652,3.16536 -21.3331,8.84646 -1.17756,1.17874 -2.25827,2.45315 -3.22677,3.80788l-2.3941 3.34488 -50.739 0 3.51024 -10.5295c3.8374,-11.5122 10.3323,-21.9815 18.9106,-30.561 14.7,-14.7012 34.4764,-22.9087 55.2721,-22.9087l8.0752 0 0 0.477166c17.7803,1.82953 34.4138,9.6567 47.1898,22.4292 14.6847,14.6823 22.8898,34.4292 22.8898,55.2012l0 17.8925 35.667 0 0 176 -224 0 0 -176 140.333 0zm35.667 48l-128 0 0 79.9997 128 0 0 -79.9997z"/>
  <polygon class="fil2" points="857.39,936.001 824,936.001 824,1016 857.39,1016 "/>
  <polygon class="fil2" points="952,936.001 858.066,936.001 857.39,936.001 857.39,1016 857.989,1016 952,1016 "/>
  <path class="fil2" d="M916.333 888.001l0 -17.8925c0,-8.01379 -3.16418,-15.5988 -8.82757,-21.261 -5.21339,-5.21339 -12.0496,-8.37166 -19.3654,-8.84646l-1.96181 0c-8.03741,0 -15.652,3.16536 -21.3331,8.84646 -1.17756,1.17874 -2.25827,2.45315 -3.22677,3.80788l-2.3941 3.34488 -1.08071 0 -0.753544 0 0 32.0008 0.722835 0 58.2201 0z"/>
  <path class="fil3" d="M857.39 1211.25l-261.918 0 -195.571 -337.618 -0.0944883 0.056693 -35.4 -61.3323 -55.4575 -95.7355 0.126378 -0.126378 -53.0752 -91.9359 73.3973 0 2.15551 4.48229 27.8858 48.3473 497.951 0 0 120.096c-9.81969,3.89292 -18.8386,9.78072 -26.4839,17.426 -8.57835,8.57953 -15.0732,19.0488 -18.9106,30.561l-3.51024 10.5295 48.9048 0 0 32.0008 -81.3898 0 0 176 81.3898 0 0 147.249z"/>
  <polygon class="fil3" points="857.39,1398.36 594.854,1398.19 594.93,1335.51 857.39,1335.34 "/>
  <path class="fil2" d="M1792 403.043l0 63.4689c-15.7654,1.20473 -33.0047,2.2252 -49.8662,3.22087 -113.329,6.71339 -207.162,12.2669 -263.301,134.982l-360.612 793.822 -260.605 -0.172441 -0.226772 -0.0011811 0 -63.0201 0.288189 0 217.699 -0.137008 56.7248 -123.957 -274.303 0 -0.408662 0 0 -147.249 0.551575 0 142.058 0 0 -176 -35.667 0 0 -17.8925c0,-20.7721 -8.20512,-40.5189 -22.8898,-55.2012 -12.776,-12.7725 -29.4095,-20.5996 -47.1898,-22.4292l0 -0.477166 -8.0752 0c-9.68268,0 -19.1457,1.7811 -27.9768,5.16615l-0.811418 0.316536 0 -120.096 0.927166 0 517.903 0 45.2209 -98.895c71.9717,-157.339 182.943,-163.908 316.987,-171.843 16.6347,-0.989765 33.6792,-1.99843 53.5725,-3.60591z"/>
  <path class="fil4" d="M682.635 1495.79c-9.09568,-9.09568 -21.665,-14.7248 -35.5512,-14.7248 -13.8862,0 -26.4555,5.62914 -35.5512,14.7248 -9.09568,9.09568 -14.7248,21.6709 -14.7248,35.5512 0,13.8862 5.62914,26.4614 14.7248,35.5571 9.09568,9.09568 21.665,14.7189 35.5512,14.7189 13.8862,0 26.4555,-5.62323 35.5512,-14.7189 9.09568,-9.09568 14.7248,-21.6709 14.7248,-35.5571 0,-13.8803 -5.62914,-26.4555 -14.7248,-35.5512z"/>
  <path class="fil4" d="M1109.36 1495.79c-9.09568,-9.09568 -21.665,-14.7248 -35.5512,-14.7248 -13.8862,0 -26.4614,5.62914 -35.5583,14.7248 -9.09568,9.09568 -14.7177,21.6709 -14.7177,35.5512 0,13.8862 5.62205,26.4614 14.7177,35.5571 9.09686,9.09568 21.6721,14.7189 35.5583,14.7189 13.8862,0 26.4555,-5.62323 35.5512,-14.7189 9.09568,-9.09568 14.7248,-21.6709 14.7248,-35.5571 0,-13.8803 -5.62914,-26.4555 -14.7248,-35.5512z"/>
 </g>
</svg>
